PathFileType	4	(X/Y/Z)	c:/Users/goper/Files/vsCode/490R/osim_files/A04/A04_SSWS_03.trc
DataRate	CameraRate	NumFrames	NumMarkers	Units                	OrigDataRate	OrigDataStartFrame	OrigNumFrames
120.00	120.00	4	36	mm	120.0	1001	2000
                Frame#	Time	LPSIS			LASIS			LTH1			LTH2			LTH3			LTH4			LLFE			LMFE			LSH1			LSH2			LSH3			LSH4			LLMAL			LMMAL			LCAL			LMTP5			LTOE			LMTP1			RPSIS			RASIS			RTH1			RTH2			RTH3			RTH4			RLFE			RMFE			RSH1			RSH2			RSH3			RSH4			RLMAL			RMMAL			RCAL			RMTP1			RTOE			RMTP5		
		X1	Y1	Z1	X2	Y2	Z2	X3	Y3	Z3	X4	Y4	Z4	X5	Y5	Z5	X6	Y6	Z6	X7	Y7	Z7	X8	Y8	Z8	X9	Y9	Z9	X10	Y10	Z10	X11	Y11	Z11	X12	Y12	Z12	X13	Y13	Z13	X14	Y14	Z14	X15	Y15	Z15	X16	Y16	Z16	X17	Y17	Z17	X18	Y18	Z18	X19	Y19	Z19	X20	Y20	Z20	X21	Y21	Z21	X22	Y22	Z22	X23	Y23	Z23	X24	Y24	Z24	X25	Y25	Z25	X26	Y26	Z26	X27	Y27	Z27	X28	Y28	Z28	X29	Y29	Z29	X30	Y30	Z30	X31	Y31	Z31	X32	Y32	Z32	X33	Y33	Z33	X34	Y34	Z34	X35	Y35	Z35	X36	Y36	Z36

1001	8.33333	-1959.75391	1070.78918	282.37332	-2180.59082	1028.49194	366.17462	-2230.73193	696.34814	409.71674	-2254.73462	659.32672	409.00632	-2283.69287	726.19366	407.52682	-2302.20874	684.64880	407.83871	-2319.28540	572.59039	399.75073	-2331.46069	572.53979	260.18185	-2297.69214	467.18948	403.07443	-2309.60693	425.81702	401.06540	-2358.31274	476.66467	390.74014	-2360.45166	433.62988	388.85959	-2321.12573	142.49313	361.75851	-2345.19995	146.18790	277.90536	-2261.37280	100.58469	303.95764	-2461.01343	90.98734	401.08188	-2509.95435	106.83604	340.47125	-2494.23584	91.16919	295.96661	-1958.22363	1060.78479	176.19756	-2181.44556	1022.37714	78.93019	-2021.51599	737.57593	50.73112	-2021.56030	695.12402	51.75826	-2082.62036	731.06702	40.56759	-2073.85815	684.64783	45.89615	-2047.49963	550.63489	73.02566	-2060.99512	542.55444	187.33757	-1953.86816	348.58862	79.27428	-1953.00574	300.91736	85.89783	-2013.43555	339.68307	69.57991	-2002.22668	293.35065	73.30362	-1950.51331	107.43707	75.06677	-1987.89587	110.38145	206.94557	-1884.82202	64.13184	157.81059	-2110.79102	56.63908	178.21187	-2130.24634	78.75581	130.38901	-2091.90356	53.32492	60.12597
1002	8.34167	-1968.99377	1069.08118	283.06784	-2189.67944	1026.51343	367.11307	-2236.29688	692.59442	409.19440	-2260.05176	655.75446	408.59695	-2289.09351	722.47760	407.39667	-2307.70972	681.09308	407.81335	-2325.11914	569.03113	399.56088	-2337.32178	569.06433	259.95773	-2309.04272	462.83322	403.59888	-2322.72461	421.96527	401.42529	-2368.91113	475.10648	391.00116	-2373.04102	432.12250	389.25958	-2348.72388	139.31926	363.20447	-2372.97729	144.10345	279.37338	-2290.13770	94.62274	306.04025	-2491.04736	94.96757	402.14661	-2538.66211	112.86929	341.49750	-2524.53369	97.47083	297.14465	-1967.48560	1059.31555	176.85507	-2190.77441	1021.04987	79.78223	-2027.86841	737.56256	51.06805	-2027.47778	695.01678	52.20873	-2089.00952	730.51556	41.16754	-2080.24292	684.06982	46.65732	-2051.67847	550.22791	73.35960	-2065.01831	542.04089	188.01463	-1956.10376	348.96494	79.67876	-1955.00537	301.28510	86.17305	-2015.74829	339.71591	69.76894	-2003.97925	293.44263	73.69757	-1951.04370	107.80418	75.20938	-1988.42273	110.47188	207.07462	-1885.07654	64.58480	157.90376	-2110.32788	56.20250	178.56056	-2130.41016	78.37866	130.43156	-2091.98218	53.21835	60.12569
1003	8.35000	-1978.18994	1067.45728	283.76215	-2198.94531	1024.36804	368.11008	-2241.54712	688.68109	408.64584	-2265.35156	651.82153	408.33603	-2294.38916	718.63110	407.17694	-2312.90601	677.08191	407.82654	-2330.62769	565.12415	399.36386	-2343.51465	565.40637	259.80499	-2319.54370	458.26437	403.55679	-2335.33984	418.16620	401.69995	-2379.28857	473.84744	391.16547	-2384.90405	430.97610	388.39990	-2375.54004	136.80046	364.78461	-2399.20117	142.72594	281.00116	-2318.85938	89.33318	307.93295	-2520.16992	99.39256	403.35526	-2565.57959	120.25756	342.10156	-2552.89917	103.54432	298.11508	-1976.80994	1057.73071	177.62024	-2200.06592	1019.62396	80.69249	-2034.36609	737.56616	51.25798	-2033.55615	694.92938	52.61659	-2095.55371	729.92578	41.74926	-2085.71533	683.65973	47.19503	-2056.06787	549.87201	73.77988	-2069.27686	541.50073	188.61223	-1958.57874	349.39188	80.04427	-1957.06018	301.75818	86.61424	-2018.02563	339.61469	70.22688	-2005.99658	293.54538	73.94645	-1951.58386	108.19568	75.40046	-1988.96033	110.55128	207.14583	-1885.26978	65.20512	157.94728	-2109.38794	55.38928	179.51596	-2130.55444	78.01141	130.50011	-2092.09253	53.10751	60.12551
1004	8.35833	-1987.72815	1065.47546	284.61096	-2208.38135	1022.17651	369.15021	-2246.71631	684.57684	408.10272	-2270.60718	647.53992	408.27472	-2299.53687	714.38190	407.00809	-2318.06055	672.83710	407.95325	-2335.93652	560.90546	399.05914	-2350.95361	562.33618	259.85654	-2329.73364	453.70288	403.57574	-2347.37012	414.30557	401.96521	-2388.87915	472.01126	391.24445	-2396.04883	428.98157	388.61993	-2401.36792	135.00426	366.46045	-2424.32129	142.10312	282.58252	-2346.74609	84.90342	309.84195	-2547.58423	104.46716	404.69958	-2592.94019	126.86223	343.52887	-2579.43481	109.73812	299.18124	-1986.31494	1056.09644	178.41176	-2209.61475	1018.34833	81.65650	-2041.01575	737.48743	51.46918	-2039.92676	694.83801	53.05671	-2102.04688	729.17993	42.30516	-2091.94141	683.14392	47.82457	-2060.78540	549.44910	74.18482	-2074.05176	541.08875	189.26198	-1961.20532	349.91992	80.47744	-1959.29565	302.23251	86.94983	-2020.59009	339.70175	70.55036	-2008.15833	293.69711	74.27729	-1952.01636	108.70354	75.52271	-1989.70764	110.69374	207.18446	-1885.61841	65.88824	158.09309	-2110.11060	55.15637	179.04814	-2130.78027	77.75790	130.43295	-2092.17432	53.00074	60.12973
